<svg width="32" height="32" viewBox="0 0 32 32" fill="none" xmlns="http://www.w3.org/2000/svg">
<path fill-rule="evenodd" clip-rule="evenodd" d="M26.876 3.61759C27.2137 3.48667 27.5807 3.44991 27.9376 3.51125C28.2946 3.57258 28.6282 3.72971 28.9029 3.96585C29.1775 4.20199 29.3829 4.50828 29.497 4.85203C29.6112 5.19577 29.6298 5.56407 29.551 5.91759L29.5498 5.92319L29.5498 5.92319L24.8498 26.4482L24.8496 26.4487C24.772 26.7868 24.6078 27.0989 24.3731 27.3544C24.1384 27.6098 23.8413 27.7998 23.5109 27.9057C23.1806 28.0116 22.8284 28.0298 22.4889 27.9585C22.1501 27.8872 21.8356 27.7293 21.5762 27.5001C21.5757 27.4996 21.5751 27.4992 21.5746 27.4987L10.5405 17.7902L4.14066 16.5054L4.13654 16.5046C2.21425 16.1103 1.91886 13.4177 3.79761 12.6814L4.16248 13.6125L3.79692 12.6817L3.79761 12.6814L26.8719 3.61919L26.876 3.61759ZM4.53364 14.5411C4.53381 14.5423 4.53402 14.5434 4.53424 14.5444C4.5352 14.5447 4.53623 14.5449 4.53734 14.5451C4.53769 14.5452 4.53806 14.5453 4.53843 14.5454L11.1968 15.882C11.3689 15.9166 11.5288 15.9958 11.6606 16.1117L22.8981 25.9992L22.9003 26.0012L27.5989 5.48236L4.53364 14.5411ZM4.52411 14.5413C4.52411 14.5413 4.52412 14.5413 4.52415 14.5413L4.52411 14.5413Z" fill="black"/>
<path fill-rule="evenodd" clip-rule="evenodd" d="M28.8232 3.98951C29.1465 4.43723 29.0457 5.06232 28.598 5.38569L11.5855 17.6732C11.1378 17.9966 10.5127 17.8958 10.1893 17.448C9.86598 17.0003 9.96678 16.3752 10.4145 16.0519L27.427 3.76436C27.8747 3.44099 28.4998 3.5418 28.8232 3.98951Z" fill="black"/>
<path fill-rule="evenodd" clip-rule="evenodd" d="M11 15.8625C11.5523 15.8625 12 16.3102 12 16.8625L12 24.9983L12.0054 24.9929L15.9054 21.0929C16.2959 20.7024 16.9291 20.7024 17.3196 21.0929C17.7101 21.4834 17.7101 22.1166 17.3196 22.5071L13.4218 26.4049C13.144 26.6857 12.7893 26.878 12.4023 26.9574C12.0138 27.0372 11.6104 26.9997 11.2433 26.8496C10.8762 26.6996 10.562 26.4438 10.3406 26.1147C10.1192 25.7857 10.0007 25.3982 10 25.0017L10 16.8625C10 16.3102 10.4477 15.8625 11 15.8625Z" fill="black"/>
</svg>
