<svg width="60" height="60" viewBox="0 0 60 60" fill="none" xmlns="http://www.w3.org/2000/svg">
<rect width="60" height="60" fill="white"/>
<path fill-rule="evenodd" clip-rule="evenodd" d="M48.75 43.125C49.7855 43.125 50.625 42.2855 50.625 41.25L50.625 15C50.625 13.9645 49.7855 13.125 48.75 13.125L11.25 13.125C10.2145 13.125 9.375 13.9645 9.375 15L9.375 41.25C9.375 42.2855 10.2145 43.125 11.25 43.125L48.75 43.125ZM54.375 41.25C54.375 44.3566 51.8566 46.875 48.75 46.875L11.25 46.875C8.1434 46.875 5.625 44.3566 5.625 41.25L5.625 15C5.625 11.8934 8.1434 9.375 11.25 9.375L48.75 9.375C51.8566 9.375 54.375 11.8934 54.375 15L54.375 41.25Z" fill="black"/>
<path fill-rule="evenodd" clip-rule="evenodd" d="M20.625 52.5C20.625 51.4645 21.4645 50.625 22.5 50.625H37.5C38.5355 50.625 39.375 51.4645 39.375 52.5C39.375 53.5355 38.5355 54.375 37.5 54.375H22.5C21.4645 54.375 20.625 53.5355 20.625 52.5Z" fill="black"/>
<path fill-rule="evenodd" clip-rule="evenodd" d="M5.625 35.625C5.625 34.5895 6.46447 33.75 7.5 33.75H52.5C53.5355 33.75 54.375 34.5895 54.375 35.625C54.375 36.6605 53.5355 37.5 52.5 37.5H7.5C6.46447 37.5 5.625 36.6605 5.625 35.625Z" fill="black"/>
<path fill-rule="evenodd" clip-rule="evenodd" d="M30 43.125C31.0355 43.125 31.875 43.9645 31.875 45V52.5C31.875 53.5355 31.0355 54.375 30 54.375C28.9645 54.375 28.125 53.5355 28.125 52.5V45C28.125 43.9645 28.9645 43.125 30 43.125Z" fill="black"/>
</svg>
