<svg width="15" height="21" viewBox="0 0 15 21" fill="none" xmlns="http://www.w3.org/2000/svg">
<path d="M0 3.32858C0 2.66684 0.263396 2.03221 0.732245 1.56429C1.20109 1.09637 1.83699 0.833496 2.50004 0.833496L12.5002 0.833496C13.1633 0.833496 13.7991 1.09637 14.268 1.56429C14.7368 2.03221 15.0002 2.66684 15.0002 3.32858V20.1704C15.0002 20.2832 14.9695 20.3939 14.9113 20.4907C14.8532 20.5875 14.7699 20.6667 14.6702 20.72C14.5706 20.7732 14.4583 20.7985 14.3454 20.7931C14.2324 20.7877 14.1231 20.7519 14.029 20.6894L7.50012 17.1775L0.971266 20.6894C0.877146 20.7519 0.7678 20.7877 0.654875 20.7931C0.541949 20.7985 0.429673 20.7732 0.330005 20.72C0.230336 20.6667 0.147007 20.5875 0.088894 20.4907C0.0307805 20.3939 5.84015e-05 20.2832 0 20.1704V3.32858ZM2.50004 2.08104C2.16851 2.08104 1.85057 2.21247 1.61614 2.44643C1.38172 2.68039 1.25002 2.99771 1.25002 3.32858V19.0052L7.15387 15.9088C7.25644 15.8407 7.37691 15.8043 7.50012 15.8043C7.62333 15.8043 7.7438 15.8407 7.84638 15.9088L13.7502 19.0052V3.32858C13.7502 2.99771 13.6185 2.68039 13.3841 2.44643C13.1497 2.21247 12.8317 2.08104 12.5002 2.08104H2.50004Z" fill="black"/>
</svg>
