<svg width="18" height="20" viewBox="0 0 18 20" fill="none" xmlns="http://www.w3.org/2000/svg">
<path d="M16.1532 7.61909C15.2358 6.99288 14.6605 6.15558 14.2005 4.86626C14.0295 4.38698 13.6029 4.07708 13.1137 4.07708C12.5878 4.07708 12.1069 4.41553 11.7945 5.00549C11.6191 5.33142 11.5113 5.68929 11.4775 6.05773C11.1535 5.46809 10.4952 5.34266 10.1831 5.76195C10.1831 5.76195 7.61605 3.81434 6.74044 3.19423C5.57682 2.37104 4.03551 3.28277 4.07408 4.22433C2.60477 3.42938 0.991771 4.8329 1.48872 6.30379C0.920411 6.19985 -0.533151 7.70346 0.994985 8.85836C-0.0635238 8.96679 -0.474648 10.6209 0.755511 11.3738C0.755511 11.3738 0.761297 11.6025 0.77769 11.7148C-0.0329869 11.9605 -0.312642 13.4901 0.471356 13.9729C0.471356 13.9729 6.12552 17.5762 8.07186 18.6602C9.1294 19.2492 10.9504 19.4805 12.5727 18.9547C14.1481 18.7918 15.4846 17.9583 16.5586 16.473C19.5142 12.3853 17.1728 8.31523 16.1532 7.61909ZM15.807 16.0745C14.5762 17.8005 12.8086 17.9795 11.456 17.9795C9.24801 17.9795 7.89924 16.9231 7.89924 16.9231L1.83941 12.4074C0.692187 11.617 1.38297 10.3575 2.18786 10.3806L7.00853 13.6589L7.60191 13.6958C7.60191 13.6958 3.29619 10.6109 1.9021 9.52499C1.0882 8.89108 1.35564 7.68036 2.40933 7.43976L8.4383 11.7591L9.03104 11.796L2.59095 6.8113C1.23028 5.81873 2.59577 3.94716 3.91497 4.90027C5.43635 5.99934 10.0134 9.48296 10.0134 9.48296L10.6067 9.52018L4.58132 4.53904C4.52924 3.77039 5.55368 3.10216 6.37271 3.71361C8.01978 4.94326 12.9636 8.62834 12.9636 8.62834C12.8363 8.27257 12.7726 8.00502 12.7726 8.00502C12.7726 8.00502 11.8334 6.44655 12.3422 5.31186C12.789 4.31672 13.6929 4.47841 13.8752 5.01319C14.3596 6.43692 14.8614 7.28192 15.8652 7.99411C17.1471 8.90359 18.458 12.3587 15.807 16.0745Z" fill="black"/>
<path d="M13.5129 0.285195L10.7453 0L11.6897 3.93307L13.5129 0.285195Z" fill="black"/>
<path d="M15.8029 1.04711L14.3966 4.31708L17.6769 3.44L15.8029 1.04711Z" fill="black"/>
<path d="M8.07089 0.496947L6.07474 2.14364L8.94972 4.01329L8.07089 0.496947Z" fill="black"/>
</svg>
