<svg width="18" height="20" viewBox="0 0 18 20" fill="none" xmlns="http://www.w3.org/2000/svg">
<path d="M14.9469 13.8168C14.4793 13.8168 14.0179 13.9243 13.5985 14.1307C13.1791 14.3372 12.8129 14.6372 12.5283 15.0075L5.94318 11.2775C6.16444 10.6367 6.16444 9.94054 5.94318 9.29981L12.5283 5.5698C12.9879 6.16497 13.6519 6.56947 14.3924 6.70545C15.1329 6.84142 15.8976 6.69928 16.5395 6.30636C17.1813 5.91344 17.6548 5.29751 17.869 4.57709C18.0831 3.85668 18.0227 3.08267 17.6994 2.40401C17.3761 1.72536 16.8128 1.19 16.1177 0.900967C15.4227 0.611931 14.6452 0.589635 13.9347 0.838369C13.2242 1.0871 12.6309 1.58929 12.2691 2.2483C11.9073 2.90731 11.8025 3.67658 11.9749 4.40808L5.27757 8.20169C4.85848 7.75675 4.31511 7.44775 3.71792 7.31476C3.12073 7.18178 2.49727 7.23095 1.92842 7.4559C1.35957 7.68084 0.871573 8.07119 0.527713 8.5763C0.183853 9.08141 0 9.67798 0 10.2886C0 10.8993 0.183853 11.4959 0.527713 12.001C0.871573 12.5061 1.35957 12.8964 1.92842 13.1214C2.49727 13.3463 3.12073 13.3955 3.71792 13.2625C4.31511 13.1295 4.85848 12.8205 5.27757 12.3756L11.9749 16.1692C11.8305 16.785 11.8817 17.4304 12.1214 18.0159C12.3612 18.6013 12.7775 19.0978 13.3127 19.4365C13.8479 19.7751 14.4754 19.9391 15.1082 19.9058C15.741 19.8725 16.3478 19.6434 16.8442 19.2504C17.3407 18.8574 17.7024 18.32 17.879 17.7126C18.0556 17.1052 18.0385 16.458 17.83 15.8608C17.6214 15.2636 17.2318 14.746 16.7152 14.3797C16.1986 14.0134 15.5806 13.8167 14.9469 13.8168ZM14.9469 1.94947C15.2965 1.94947 15.6383 2.05293 15.9289 2.24677C16.2196 2.44061 16.4462 2.71611 16.5799 3.03845C16.7137 3.36079 16.7487 3.71548 16.6805 4.05768C16.6123 4.39987 16.444 4.7142 16.1968 4.9609C15.9496 5.20761 15.6346 5.37562 15.2918 5.44369C14.9489 5.51175 14.5935 5.47682 14.2705 5.3433C13.9475 5.20978 13.6715 4.98368 13.4773 4.69358C13.283 4.40349 13.1794 4.06242 13.1794 3.71353C13.1799 3.24583 13.3663 2.79744 13.6977 2.46673C14.029 2.13601 14.4783 1.94999 14.9469 1.94947ZM3.05607 12.0527C2.70648 12.0527 2.36474 11.9492 2.07406 11.7554C1.78339 11.5616 1.55684 11.2861 1.42306 10.9637C1.28927 10.6414 1.25427 10.2867 1.32247 9.94449C1.39067 9.6023 1.55902 9.28798 1.80621 9.04127C2.05341 8.79456 2.36836 8.62655 2.71123 8.55848C3.05411 8.49042 3.40951 8.52535 3.73248 8.65887C4.05546 8.79239 4.33152 9.01849 4.52574 9.30859C4.71996 9.59868 4.82363 9.93975 4.82363 10.2886C4.82311 10.7563 4.63672 11.2047 4.30535 11.5354C3.97398 11.8662 3.52469 12.0522 3.05607 12.0527ZM14.9469 18.6278C14.5973 18.6278 14.2556 18.5244 13.9649 18.3305C13.6743 18.1367 13.4477 17.8612 13.3139 17.5388C13.1801 17.2165 13.1451 16.8618 13.2133 16.5196C13.2815 16.1774 13.4499 15.8631 13.6971 15.6164C13.9443 15.3697 14.2592 15.2017 14.6021 15.1336C14.945 15.0655 15.3004 15.1005 15.6233 15.234C15.9463 15.3675 16.2224 15.5936 16.4166 15.8837C16.6108 16.1738 16.7145 16.5149 16.7145 16.8638C16.714 17.3315 16.5276 17.7799 16.1962 18.1106C15.8648 18.4413 15.4156 18.6273 14.9469 18.6278Z" fill="black"/>
</svg>
